<?xml version="1.0" standalone="no"?>
<!DOCTYPE svg PUBLIC "-//W3C//DTD SVG 20010904//EN"
 "http://www.w3.org/TR/2001/REC-SVG-20010904/DTD/svg10.dtd">
<svg version="1.0" xmlns="http://www.w3.org/2000/svg"
 width="700.000000pt" height="700.000000pt" viewBox="0 0 700.000000 700.000000"
 preserveAspectRatio="xMidYMid meet">
<metadata>
Created by potrace 1.14, written by Peter Selinger 2001-2017
</metadata>
<g transform="translate(0.000000,700.000000) scale(0.100000,-0.100000)"
fill="#000000" stroke="none">
<path d="M3239 6996 c-2 -2 -41 -7 -87 -10 -46 -4 -89 -9 -95 -11 -7 -2 -36
-6 -65 -10 -30 -3 -74 -10 -99 -16 -25 -5 -58 -11 -72 -13 -71 -11 -188 -40
-331 -82 -442 -132 -870 -363 -1239 -669 -164 -136 -414 -397 -527 -550 -16
-22 -34 -45 -40 -52 -23 -24 -182 -271 -233 -360 -107 -188 -217 -440 -285
-651 -28 -89 -82 -292 -91 -345 -3 -18 -12 -63 -20 -102 -7 -38 -17 -92 -20
-120 -4 -27 -9 -61 -11 -75 -27 -168 -26 -653 1 -847 10 -67 14 -99 20 -148 4
-27 10 -66 15 -85 5 -19 12 -48 14 -65 54 -300 217 -727 398 -1039 68 -117
211 -324 305 -441 103 -129 362 -392 483 -492 402 -330 852 -562 1340 -692 63
-17 124 -32 135 -34 11 -2 31 -7 45 -10 25 -6 118 -23 175 -32 17 -3 53 -8 80
-11 28 -3 55 -7 62 -9 72 -23 676 -24 788 -1 11 2 47 7 80 11 33 4 69 9 80 11
11 1 40 6 65 9 81 11 368 85 493 126 206 69 453 179 657 296 104 59 312 203
429 297 130 105 377 342 473 456 440 521 721 1152 808 1815 7 50 14 104 16
120 8 63 11 534 3 617 -13 141 -22 208 -39 308 -6 36 -13 79 -16 95 -13 72
-76 309 -109 409 -79 237 -183 470 -291 653 -33 54 -61 103 -64 108 -11 22
-135 203 -179 260 -225 293 -474 533 -776 748 -72 52 -141 98 -153 101 -12 4
-22 12 -22 17 0 5 -5 9 -12 9 -6 0 -19 6 -27 14 -34 29 -261 146 -416 214
-131 57 -414 155 -485 168 -14 3 -38 9 -55 14 -16 5 -41 11 -55 14 -14 2 -45
9 -70 15 -44 10 -75 15 -142 26 -18 3 -44 7 -58 10 -14 2 -52 7 -85 11 -33 3
-69 9 -80 11 -23 6 -610 14 -616 9z m501 -618 c90 -9 261 -42 320 -60 343
-104 621 -262 848 -481 35 -33 70 -77 79 -96 19 -44 18 -110 -2 -159 -20 -48
-695 -717 -745 -738 -79 -34 -174 -11 -242 57 -17 16 -49 42 -71 58 -288 197
-667 164 -907 -79 -133 -135 -201 -299 -201 -485 0 -85 7 -134 28 -200 143
-451 676 -638 1066 -373 32 21 73 53 90 70 69 66 164 85 242 49 57 -28 720
-686 741 -736 20 -48 20 -111 1 -157 -32 -75 -245 -255 -447 -375 -140 -83
-358 -175 -499 -209 -9 -2 -34 -8 -56 -13 -22 -6 -56 -12 -75 -16 -19 -3 -46
-7 -60 -10 -138 -25 -348 -33 -505 -20 -76 6 -282 40 -330 55 -201 60 -369
129 -507 208 -408 233 -738 629 -892 1070 -34 97 -74 246 -81 302 -2 14 -6 41
-10 60 -28 158 -26 445 5 620 15 81 16 87 40 180 116 454 418 875 823 1149 90
61 235 139 337 182 141 59 362 121 480 136 25 3 70 8 100 12 81 11 332 10 430
-1z m-1255 -4073 c329 -198 684 -295 1068 -289 271 3 513 54 767 162 47 19 90
39 95 43 6 4 42 24 80 44 39 21 110 65 158 99 142 98 134 93 121 76 -7 -8 -21
-31 -32 -50 -10 -19 -89 -154 -174 -300 -85 -146 -180 -308 -210 -360 -30 -52
-151 -259 -268 -460 -117 -201 -233 -400 -257 -443 -53 -92 -104 -146 -169
-176 -117 -55 -243 -41 -345 40 -30 24 -149 194 -149 213 0 2 -26 48 -58 103
-86 144 -560 959 -590 1012 -13 25 -28 51 -32 56 -5 6 -47 78 -95 160 -48 83
-96 166 -108 185 l-21 34 64 -47 c36 -26 106 -72 155 -102z"/>
</g>
</svg>
